<svg width="805" height="270" viewBox="0 0 805 270" fill="none" xmlns="http://www.w3.org/2000/svg">
<rect width="805" height="270" fill="#0F1624"/>
<path d="M215.091 89.4545V84.4545H250V89.4545H235.364V131H229.727V89.4545H215.091ZM257.426 144.091C256.517 144.091 255.706 144.015 254.994 143.864C254.282 143.727 253.79 143.591 253.517 143.455L254.881 138.727C256.184 139.061 257.335 139.182 258.335 139.091C259.335 139 260.222 138.553 260.994 137.75C261.782 136.962 262.502 135.682 263.153 133.909L264.153 131.182L251.244 96.0909H257.062L266.699 123.909H267.062L276.699 96.0909H282.517L267.699 136.091C267.032 137.894 266.206 139.386 265.222 140.568C264.237 141.765 263.093 142.652 261.79 143.227C260.502 143.803 259.047 144.091 257.426 144.091ZM289.597 144.091V96.0909H294.778V101.636H295.415C295.809 101.03 296.354 100.258 297.051 99.3182C297.763 98.3636 298.778 97.5152 300.097 96.7727C301.43 96.0152 303.233 95.6364 305.506 95.6364C308.445 95.6364 311.036 96.3712 313.278 97.8409C315.521 99.3106 317.271 101.394 318.528 104.091C319.786 106.788 320.415 109.97 320.415 113.636C320.415 117.333 319.786 120.538 318.528 123.25C317.271 125.947 315.528 128.038 313.301 129.523C311.074 130.992 308.506 131.727 305.597 131.727C303.354 131.727 301.559 131.356 300.21 130.614C298.862 129.856 297.824 129 297.097 128.045C296.369 127.076 295.809 126.273 295.415 125.636H294.96V144.091H289.597ZM294.869 113.545C294.869 116.182 295.256 118.508 296.028 120.523C296.801 122.523 297.93 124.091 299.415 125.227C300.9 126.348 302.718 126.909 304.869 126.909C307.112 126.909 308.983 126.318 310.483 125.136C311.998 123.939 313.134 122.333 313.892 120.318C314.665 118.288 315.051 116.03 315.051 113.545C315.051 111.091 314.672 108.879 313.915 106.909C313.172 104.924 312.044 103.356 310.528 102.205C309.028 101.038 307.142 100.455 304.869 100.455C302.688 100.455 300.854 101.008 299.369 102.114C297.884 103.205 296.763 104.735 296.006 106.705C295.248 108.659 294.869 110.939 294.869 113.545ZM343.233 131.727C339.869 131.727 336.968 130.985 334.528 129.5C332.104 128 330.233 125.909 328.915 123.227C327.612 120.53 326.96 117.394 326.96 113.818C326.96 110.242 327.612 107.091 328.915 104.364C330.233 101.621 332.066 99.4848 334.415 97.9545C336.778 96.4091 339.536 95.6364 342.688 95.6364C344.506 95.6364 346.301 95.9394 348.074 96.5455C349.847 97.1515 351.46 98.1364 352.915 99.5C354.369 100.848 355.528 102.636 356.392 104.864C357.256 107.091 357.688 109.833 357.688 113.091V115.364H330.778V110.727H352.233C352.233 108.758 351.839 107 351.051 105.455C350.278 103.909 349.172 102.689 347.733 101.795C346.309 100.902 344.627 100.455 342.688 100.455C340.551 100.455 338.703 100.985 337.142 102.045C335.597 103.091 334.407 104.455 333.574 106.136C332.741 107.818 332.324 109.621 332.324 111.545V114.636C332.324 117.273 332.778 119.508 333.688 121.341C334.612 123.159 335.892 124.545 337.528 125.5C339.165 126.439 341.066 126.909 343.233 126.909C344.642 126.909 345.915 126.712 347.051 126.318C348.203 125.909 349.195 125.303 350.028 124.5C350.862 123.682 351.506 122.667 351.96 121.455L357.142 122.909C356.597 124.667 355.68 126.212 354.392 127.545C353.104 128.864 351.513 129.894 349.619 130.636C347.725 131.364 345.597 131.727 343.233 131.727ZM390.574 103.909L385.756 105.273C385.453 104.47 385.006 103.689 384.415 102.932C383.839 102.159 383.051 101.523 382.051 101.023C381.051 100.523 379.771 100.273 378.21 100.273C376.074 100.273 374.294 100.765 372.869 101.75C371.46 102.72 370.756 103.955 370.756 105.455C370.756 106.788 371.241 107.841 372.21 108.614C373.18 109.386 374.695 110.03 376.756 110.545L381.938 111.818C385.059 112.576 387.384 113.735 388.915 115.295C390.445 116.841 391.21 118.833 391.21 121.273C391.21 123.273 390.634 125.061 389.483 126.636C388.347 128.212 386.756 129.455 384.71 130.364C382.665 131.273 380.286 131.727 377.574 131.727C374.013 131.727 371.066 130.955 368.733 129.409C366.4 127.864 364.922 125.606 364.301 122.636L369.392 121.364C369.877 123.242 370.794 124.652 372.142 125.591C373.506 126.53 375.286 127 377.483 127C379.983 127 381.968 126.47 383.438 125.409C384.922 124.333 385.665 123.045 385.665 121.545C385.665 120.333 385.241 119.318 384.392 118.5C383.544 117.667 382.241 117.045 380.483 116.636L374.665 115.273C371.468 114.515 369.119 113.341 367.619 111.75C366.134 110.144 365.392 108.136 365.392 105.727C365.392 103.758 365.945 102.015 367.051 100.5C368.172 98.9848 369.695 97.7955 371.619 96.9318C373.559 96.0682 375.756 95.6364 378.21 95.6364C381.665 95.6364 384.377 96.3939 386.347 97.9091C388.331 99.4242 389.741 101.424 390.574 103.909ZM413.466 131.727C410.193 131.727 407.375 130.955 405.011 129.409C402.648 127.864 400.83 125.735 399.557 123.023C398.284 120.311 397.648 117.212 397.648 113.727C397.648 110.182 398.299 107.053 399.602 104.341C400.92 101.614 402.754 99.4848 405.102 97.9545C407.466 96.4091 410.223 95.6364 413.375 95.6364C415.83 95.6364 418.042 96.0909 420.011 97C421.981 97.9091 423.595 99.1818 424.852 100.818C426.11 102.455 426.89 104.364 427.193 106.545H421.83C421.42 104.955 420.511 103.545 419.102 102.318C417.708 101.076 415.83 100.455 413.466 100.455C411.375 100.455 409.542 101 407.966 102.091C406.405 103.167 405.186 104.689 404.307 106.659C403.443 108.614 403.011 110.909 403.011 113.545C403.011 116.242 403.436 118.591 404.284 120.591C405.148 122.591 406.36 124.144 407.92 125.25C409.496 126.356 411.345 126.909 413.466 126.909C414.86 126.909 416.125 126.667 417.261 126.182C418.398 125.697 419.36 125 420.148 124.091C420.936 123.182 421.496 122.091 421.83 120.818H427.193C426.89 122.879 426.14 124.735 424.943 126.386C423.761 128.023 422.193 129.326 420.239 130.295C418.299 131.25 416.042 131.727 413.466 131.727ZM435.034 131V96.0909H440.216V101.364H440.58C441.216 99.6364 442.367 98.2348 444.034 97.1591C445.701 96.0833 447.58 95.5455 449.67 95.5455C450.064 95.5455 450.557 95.553 451.148 95.5682C451.739 95.5833 452.186 95.6061 452.489 95.6364V101.091C452.307 101.045 451.89 100.977 451.239 100.886C450.602 100.78 449.928 100.727 449.216 100.727C447.519 100.727 446.004 101.083 444.67 101.795C443.352 102.492 442.307 103.462 441.534 104.705C440.777 105.932 440.398 107.333 440.398 108.909V131H435.034ZM458.847 131V96.0909H464.21V131H458.847ZM461.574 90.2727C460.528 90.2727 459.627 89.9167 458.869 89.2045C458.127 88.4924 457.756 87.6364 457.756 86.6364C457.756 85.6364 458.127 84.7803 458.869 84.0682C459.627 83.3561 460.528 83 461.574 83C462.619 83 463.513 83.3561 464.256 84.0682C465.013 84.7803 465.392 85.6364 465.392 86.6364C465.392 87.6364 465.013 88.4924 464.256 89.2045C463.513 89.9167 462.619 90.2727 461.574 90.2727ZM474.034 144.091V96.0909H479.216V101.636H479.852C480.246 101.03 480.792 100.258 481.489 99.3182C482.201 98.3636 483.216 97.5152 484.534 96.7727C485.867 96.0152 487.67 95.6364 489.943 95.6364C492.883 95.6364 495.473 96.3712 497.716 97.8409C499.958 99.3106 501.708 101.394 502.966 104.091C504.223 106.788 504.852 109.97 504.852 113.636C504.852 117.333 504.223 120.538 502.966 123.25C501.708 125.947 499.966 128.038 497.739 129.523C495.511 130.992 492.943 131.727 490.034 131.727C487.792 131.727 485.996 131.356 484.648 130.614C483.299 129.856 482.261 129 481.534 128.045C480.807 127.076 480.246 126.273 479.852 125.636H479.398V144.091H474.034ZM479.307 113.545C479.307 116.182 479.693 118.508 480.466 120.523C481.239 122.523 482.367 124.091 483.852 125.227C485.337 126.348 487.155 126.909 489.307 126.909C491.549 126.909 493.42 126.318 494.92 125.136C496.436 123.939 497.572 122.333 498.33 120.318C499.102 118.288 499.489 116.03 499.489 113.545C499.489 111.091 499.11 108.879 498.352 106.909C497.61 104.924 496.481 103.356 494.966 102.205C493.466 101.038 491.58 100.455 489.307 100.455C487.125 100.455 485.292 101.008 483.807 102.114C482.322 103.205 481.201 104.735 480.443 106.705C479.686 108.659 479.307 110.939 479.307 113.545ZM528.216 96.0909V100.636H510.125V96.0909H528.216ZM515.398 87.7273H520.761V121C520.761 122.515 520.981 123.652 521.42 124.409C521.875 125.152 522.451 125.652 523.148 125.909C523.86 126.152 524.61 126.273 525.398 126.273C525.989 126.273 526.473 126.242 526.852 126.182C527.231 126.106 527.534 126.045 527.761 126L528.852 130.818C528.489 130.955 527.981 131.091 527.33 131.227C526.678 131.379 525.852 131.455 524.852 131.455C523.337 131.455 521.852 131.129 520.398 130.477C518.958 129.826 517.761 128.833 516.807 127.5C515.867 126.167 515.398 124.485 515.398 122.455V87.7273Z" fill="#971545"/>
<path d="M493 237H485.818V213.727H493.318C495.576 213.727 497.508 214.193 499.114 215.125C500.72 216.049 501.951 217.379 502.807 219.114C503.663 220.841 504.091 222.909 504.091 225.318C504.091 227.742 503.659 229.83 502.795 231.58C501.932 233.322 500.674 234.663 499.023 235.602C497.371 236.534 495.364 237 493 237ZM488.636 234.5H492.818C494.742 234.5 496.337 234.129 497.602 233.386C498.867 232.644 499.811 231.587 500.432 230.216C501.053 228.845 501.364 227.212 501.364 225.318C501.364 223.439 501.057 221.822 500.443 220.466C499.83 219.102 498.913 218.057 497.693 217.33C496.473 216.595 494.955 216.227 493.136 216.227H488.636V234.5ZM515.545 237.364C513.97 237.364 512.587 236.989 511.398 236.239C510.216 235.489 509.292 234.439 508.625 233.091C507.966 231.742 507.636 230.167 507.636 228.364C507.636 226.545 507.966 224.958 508.625 223.602C509.292 222.246 510.216 221.193 511.398 220.443C512.587 219.693 513.97 219.318 515.545 219.318C517.121 219.318 518.5 219.693 519.682 220.443C520.871 221.193 521.795 222.246 522.455 223.602C523.121 224.958 523.455 226.545 523.455 228.364C523.455 230.167 523.121 231.742 522.455 233.091C521.795 234.439 520.871 235.489 519.682 236.239C518.5 236.989 517.121 237.364 515.545 237.364ZM515.545 234.955C516.742 234.955 517.727 234.648 518.5 234.034C519.273 233.42 519.845 232.614 520.216 231.614C520.587 230.614 520.773 229.53 520.773 228.364C520.773 227.197 520.587 226.11 520.216 225.102C519.845 224.095 519.273 223.28 518.5 222.659C517.727 222.038 516.742 221.727 515.545 221.727C514.348 221.727 513.364 222.038 512.591 222.659C511.818 223.28 511.246 224.095 510.875 225.102C510.504 226.11 510.318 227.197 510.318 228.364C510.318 229.53 510.504 230.614 510.875 231.614C511.246 232.614 511.818 233.42 512.591 234.034C513.364 234.648 514.348 234.955 515.545 234.955ZM534.639 237.364C533.003 237.364 531.594 236.977 530.412 236.205C529.23 235.432 528.321 234.367 527.685 233.011C527.048 231.655 526.73 230.106 526.73 228.364C526.73 226.591 527.056 225.027 527.707 223.67C528.366 222.307 529.283 221.242 530.457 220.477C531.639 219.705 533.018 219.318 534.594 219.318C535.821 219.318 536.927 219.545 537.912 220C538.897 220.455 539.704 221.091 540.332 221.909C540.961 222.727 541.351 223.682 541.503 224.773H538.821C538.616 223.977 538.162 223.273 537.457 222.659C536.76 222.038 535.821 221.727 534.639 221.727C533.594 221.727 532.677 222 531.889 222.545C531.109 223.083 530.499 223.845 530.06 224.83C529.628 225.807 529.412 226.955 529.412 228.273C529.412 229.621 529.624 230.795 530.048 231.795C530.48 232.795 531.086 233.572 531.866 234.125C532.654 234.678 533.579 234.955 534.639 234.955C535.336 234.955 535.969 234.833 536.537 234.591C537.105 234.348 537.586 234 537.98 233.545C538.374 233.091 538.654 232.545 538.821 231.909H541.503C541.351 232.939 540.976 233.867 540.378 234.693C539.787 235.511 539.003 236.163 538.026 236.648C537.056 237.125 535.927 237.364 534.639 237.364ZM547.923 230.636L547.878 227.318H548.423L556.06 219.545H559.378L551.241 227.773H551.014L547.923 230.636ZM545.423 237V213.727H548.105V237H545.423ZM556.514 237L549.696 228.364L551.605 226.5L559.923 237H556.514ZM569.429 237.364C567.747 237.364 566.296 236.992 565.077 236.25C563.865 235.5 562.929 234.455 562.27 233.114C561.618 231.765 561.293 230.197 561.293 228.409C561.293 226.621 561.618 225.045 562.27 223.682C562.929 222.311 563.846 221.242 565.02 220.477C566.202 219.705 567.58 219.318 569.156 219.318C570.065 219.318 570.963 219.47 571.849 219.773C572.736 220.076 573.543 220.568 574.27 221.25C574.997 221.924 575.577 222.818 576.009 223.932C576.44 225.045 576.656 226.417 576.656 228.045V229.182H563.202V226.864H573.929C573.929 225.879 573.732 225 573.338 224.227C572.952 223.455 572.399 222.845 571.679 222.398C570.967 221.951 570.126 221.727 569.156 221.727C568.088 221.727 567.164 221.992 566.384 222.523C565.611 223.045 565.016 223.727 564.599 224.568C564.183 225.409 563.974 226.311 563.974 227.273V228.818C563.974 230.136 564.202 231.254 564.656 232.17C565.118 233.08 565.759 233.773 566.577 234.25C567.395 234.72 568.346 234.955 569.429 234.955C570.134 234.955 570.77 234.856 571.338 234.659C571.914 234.455 572.41 234.152 572.827 233.75C573.243 233.341 573.565 232.833 573.793 232.227L576.384 232.955C576.111 233.833 575.652 234.606 575.009 235.273C574.365 235.932 573.569 236.447 572.622 236.818C571.675 237.182 570.611 237.364 569.429 237.364ZM580.736 237V219.545H583.327V222.182H583.509C583.827 221.318 584.402 220.617 585.236 220.08C586.069 219.542 587.009 219.273 588.054 219.273C588.251 219.273 588.497 219.277 588.793 219.284C589.088 219.292 589.312 219.303 589.463 219.318V222.045C589.372 222.023 589.164 221.989 588.838 221.943C588.52 221.89 588.183 221.864 587.827 221.864C586.978 221.864 586.221 222.042 585.554 222.398C584.895 222.746 584.372 223.231 583.986 223.852C583.607 224.466 583.418 225.167 583.418 225.955V237H580.736Z" fill="white"/>
<path d="M612.261 217.636H614.727V232.193C614.727 233.492 614.489 234.596 614.011 235.504C613.534 236.412 612.861 237.102 611.993 237.572C611.125 238.043 610.1 238.278 608.92 238.278C607.807 238.278 606.816 238.076 605.947 237.672C605.079 237.261 604.396 236.678 603.899 235.922C603.402 235.166 603.153 234.268 603.153 233.227H605.58C605.58 233.804 605.722 234.308 606.007 234.739C606.299 235.163 606.696 235.494 607.2 235.733C607.704 235.972 608.277 236.091 608.92 236.091C609.63 236.091 610.233 235.942 610.73 235.643C611.227 235.345 611.605 234.908 611.864 234.331C612.129 233.748 612.261 233.035 612.261 232.193V217.636ZM623.845 238.358C622.877 238.358 621.999 238.176 621.21 237.811C620.421 237.44 619.795 236.906 619.331 236.21C618.867 235.508 618.635 234.659 618.635 233.665C618.635 232.79 618.807 232.08 619.152 231.537C619.497 230.987 619.957 230.556 620.534 230.244C621.111 229.933 621.747 229.701 622.443 229.548C623.146 229.389 623.852 229.263 624.561 229.17C625.489 229.051 626.241 228.962 626.818 228.902C627.402 228.836 627.826 228.726 628.091 228.574C628.363 228.421 628.499 228.156 628.499 227.778V227.699C628.499 226.718 628.23 225.955 627.693 225.412C627.163 224.868 626.357 224.597 625.277 224.597C624.157 224.597 623.278 224.842 622.642 225.332C622.006 225.823 621.558 226.347 621.3 226.903L619.072 226.108C619.47 225.18 620 224.457 620.663 223.94C621.333 223.417 622.062 223.052 622.851 222.847C623.646 222.634 624.429 222.528 625.197 222.528C625.688 222.528 626.251 222.588 626.888 222.707C627.531 222.82 628.151 223.055 628.747 223.413C629.35 223.771 629.851 224.312 630.249 225.034C630.646 225.757 630.845 226.724 630.845 227.938V238H628.499V235.932H628.379C628.22 236.263 627.955 236.618 627.584 236.996C627.213 237.374 626.719 237.695 626.102 237.96C625.486 238.225 624.733 238.358 623.845 238.358ZM624.203 236.25C625.131 236.25 625.913 236.068 626.55 235.703C627.193 235.339 627.677 234.868 628.001 234.291C628.333 233.714 628.499 233.108 628.499 232.472V230.324C628.399 230.443 628.18 230.553 627.842 230.652C627.511 230.745 627.126 230.828 626.689 230.901C626.258 230.967 625.837 231.027 625.426 231.08C625.022 231.126 624.694 231.166 624.442 231.199C623.832 231.278 623.262 231.408 622.732 231.587C622.208 231.759 621.784 232.021 621.459 232.372C621.141 232.717 620.982 233.187 620.982 233.784C620.982 234.599 621.283 235.216 621.886 235.634C622.496 236.045 623.268 236.25 624.203 236.25ZM647.07 222.727L641.422 238H639.036L633.388 222.727H635.934L640.15 234.898H640.309L644.525 222.727H647.07ZM654.197 238.358C653.229 238.358 652.351 238.176 651.562 237.811C650.773 237.44 650.147 236.906 649.683 236.21C649.219 235.508 648.987 234.659 648.987 233.665C648.987 232.79 649.159 232.08 649.504 231.537C649.848 230.987 650.309 230.556 650.886 230.244C651.462 229.933 652.099 229.701 652.795 229.548C653.497 229.389 654.203 229.263 654.913 229.17C655.841 229.051 656.593 228.962 657.17 228.902C657.753 228.836 658.177 228.726 658.442 228.574C658.714 228.421 658.85 228.156 658.85 227.778V227.699C658.85 226.718 658.582 225.955 658.045 225.412C657.514 224.868 656.709 224.597 655.629 224.597C654.508 224.597 653.63 224.842 652.994 225.332C652.357 225.823 651.91 226.347 651.651 226.903L649.424 226.108C649.822 225.18 650.352 224.457 651.015 223.94C651.684 223.417 652.414 223.052 653.202 222.847C653.998 222.634 654.78 222.528 655.549 222.528C656.04 222.528 656.603 222.588 657.239 222.707C657.882 222.82 658.502 223.055 659.099 223.413C659.702 223.771 660.202 224.312 660.6 225.034C660.998 225.757 661.197 226.724 661.197 227.938V238H658.85V235.932H658.731C658.572 236.263 658.307 236.618 657.935 236.996C657.564 237.374 657.07 237.695 656.454 237.96C655.837 238.225 655.085 238.358 654.197 238.358ZM654.555 236.25C655.483 236.25 656.265 236.068 656.901 235.703C657.544 235.339 658.028 234.868 658.353 234.291C658.684 233.714 658.85 233.108 658.85 232.472V230.324C658.751 230.443 658.532 230.553 658.194 230.652C657.862 230.745 657.478 230.828 657.04 230.901C656.61 230.967 656.189 231.027 655.778 231.08C655.373 231.126 655.045 231.166 654.793 231.199C654.183 231.278 653.613 231.408 653.083 231.587C652.559 231.759 652.135 232.021 651.81 232.372C651.492 232.717 651.333 233.187 651.333 233.784C651.333 234.599 651.635 235.216 652.238 235.634C652.848 236.045 653.62 236.25 654.555 236.25Z" fill="white"/>
<path d="M676.466 156V135.636H683.347C684.938 135.636 686.243 135.908 687.264 136.452C688.285 136.989 689.041 137.728 689.531 138.669C690.022 139.61 690.267 140.681 690.267 141.881C690.267 143.08 690.022 144.144 689.531 145.072C689.041 146 688.288 146.73 687.274 147.26C686.26 147.784 684.964 148.045 683.386 148.045H677.818V145.818H683.307C684.394 145.818 685.269 145.659 685.932 145.341C686.601 145.023 687.085 144.572 687.384 143.989C687.688 143.399 687.841 142.696 687.841 141.881C687.841 141.065 687.688 140.353 687.384 139.743C687.079 139.133 686.591 138.662 685.922 138.331C685.252 137.993 684.367 137.824 683.267 137.824H678.932V156H676.466ZM686.051 146.852L691.062 156H688.199L683.267 146.852H686.051ZM703.683 149.756V140.727H706.029V156H703.683V153.415H703.524C703.166 154.19 702.609 154.85 701.853 155.393C701.098 155.93 700.143 156.199 698.99 156.199C698.035 156.199 697.187 155.99 696.444 155.572C695.702 155.148 695.118 154.512 694.694 153.663C694.27 152.808 694.058 151.731 694.058 150.432V140.727H696.404V150.273C696.404 151.386 696.716 152.275 697.339 152.938C697.969 153.6 698.771 153.932 699.745 153.932C700.329 153.932 700.922 153.783 701.525 153.484C702.135 153.186 702.645 152.729 703.056 152.112C703.474 151.496 703.683 150.71 703.683 149.756ZM721.146 144.148L719.038 144.744C718.905 144.393 718.71 144.052 718.451 143.72C718.199 143.382 717.854 143.104 717.417 142.885C716.979 142.666 716.419 142.557 715.737 142.557C714.802 142.557 714.023 142.772 713.4 143.203C712.783 143.627 712.475 144.168 712.475 144.824C712.475 145.407 712.687 145.868 713.112 146.206C713.536 146.544 714.199 146.826 715.1 147.051L717.367 147.608C718.733 147.939 719.75 148.446 720.42 149.129C721.089 149.805 721.424 150.677 721.424 151.744C721.424 152.619 721.172 153.402 720.668 154.091C720.171 154.78 719.475 155.324 718.58 155.722C717.685 156.119 716.645 156.318 715.458 156.318C713.9 156.318 712.611 155.98 711.59 155.304C710.569 154.628 709.923 153.64 709.651 152.341L711.879 151.784C712.091 152.606 712.492 153.223 713.082 153.634C713.678 154.045 714.457 154.25 715.418 154.25C716.512 154.25 717.38 154.018 718.023 153.554C718.673 153.083 718.998 152.52 718.998 151.864C718.998 151.333 718.812 150.889 718.441 150.531C718.07 150.167 717.5 149.895 716.731 149.716L714.185 149.119C712.787 148.788 711.759 148.274 711.103 147.578C710.453 146.875 710.129 145.997 710.129 144.943C710.129 144.081 710.371 143.319 710.854 142.656C711.345 141.993 712.011 141.473 712.853 141.095C713.701 140.717 714.663 140.528 715.737 140.528C717.248 140.528 718.434 140.86 719.296 141.523C720.165 142.186 720.781 143.061 721.146 144.148ZM731.598 140.727V142.716H723.684V140.727H731.598ZM725.99 137.068H728.337V151.625C728.337 152.288 728.433 152.785 728.625 153.116C728.824 153.441 729.076 153.66 729.381 153.773C729.693 153.879 730.021 153.932 730.365 153.932C730.624 153.932 730.836 153.919 731.002 153.892C731.167 153.859 731.3 153.832 731.4 153.812L731.877 155.92C731.718 155.98 731.496 156.04 731.211 156.099C730.926 156.166 730.564 156.199 730.127 156.199C729.464 156.199 728.814 156.056 728.178 155.771C727.548 155.486 727.025 155.052 726.607 154.469C726.196 153.885 725.99 153.15 725.99 152.261V137.068Z" fill="white"/>
<path d="M609.457 197.284C608.226 197.284 607.146 196.991 606.217 196.405C605.294 195.819 604.572 195 604.051 193.946C603.536 192.893 603.278 191.661 603.278 190.253C603.278 188.832 603.536 187.592 604.051 186.533C604.572 185.474 605.294 184.651 606.217 184.065C607.146 183.479 608.226 183.186 609.457 183.186C610.688 183.186 611.766 183.479 612.689 184.065C613.618 184.651 614.34 185.474 614.855 186.533C615.376 187.592 615.636 188.832 615.636 190.253C615.636 191.661 615.376 192.893 614.855 193.946C614.34 195 613.618 195.819 612.689 196.405C611.766 196.991 610.688 197.284 609.457 197.284ZM609.457 195.402C610.393 195.402 611.162 195.162 611.766 194.683C612.369 194.203 612.816 193.573 613.106 192.792C613.396 192.011 613.541 191.164 613.541 190.253C613.541 189.341 613.396 188.492 613.106 187.705C612.816 186.918 612.369 186.281 611.766 185.796C611.162 185.311 610.393 185.068 609.457 185.068C608.522 185.068 607.753 185.311 607.149 185.796C606.545 186.281 606.099 186.918 605.809 187.705C605.519 188.492 605.374 189.341 605.374 190.253C605.374 191.164 605.519 192.011 605.809 192.792C606.099 193.573 606.545 194.203 607.149 194.683C607.753 195.162 608.522 195.402 609.457 195.402ZM618.835 202.114V183.364H620.859V185.53H621.107C621.261 185.293 621.474 184.991 621.747 184.624C622.025 184.251 622.421 183.92 622.936 183.63C623.457 183.334 624.161 183.186 625.049 183.186C626.197 183.186 627.209 183.473 628.085 184.047C628.961 184.621 629.645 185.435 630.136 186.489C630.627 187.542 630.873 188.785 630.873 190.217C630.873 191.661 630.627 192.913 630.136 193.973C629.645 195.026 628.964 195.843 628.094 196.423C627.224 196.997 626.221 197.284 625.085 197.284C624.209 197.284 623.507 197.139 622.981 196.849C622.454 196.553 622.048 196.219 621.764 195.846C621.48 195.467 621.261 195.153 621.107 194.905H620.93V202.114H618.835ZM620.894 190.182C620.894 191.212 621.045 192.12 621.347 192.907C621.649 193.689 622.09 194.301 622.67 194.745C623.25 195.183 623.96 195.402 624.801 195.402C625.676 195.402 626.407 195.171 626.993 194.71C627.585 194.242 628.029 193.615 628.325 192.827C628.627 192.034 628.778 191.152 628.778 190.182C628.778 189.223 628.63 188.359 628.334 187.589C628.044 186.814 627.603 186.202 627.011 185.752C626.425 185.296 625.688 185.068 624.801 185.068C623.948 185.068 623.232 185.284 622.652 185.716C622.072 186.142 621.634 186.74 621.338 187.51C621.042 188.273 620.894 189.164 620.894 190.182ZM639.786 197.284C638.472 197.284 637.339 196.994 636.386 196.414C635.439 195.828 634.708 195.011 634.193 193.964C633.684 192.91 633.43 191.685 633.43 190.288C633.43 188.892 633.684 187.661 634.193 186.595C634.708 185.524 635.424 184.689 636.342 184.092C637.265 183.488 638.342 183.186 639.573 183.186C640.283 183.186 640.985 183.304 641.677 183.541C642.37 183.778 643 184.163 643.568 184.695C644.136 185.222 644.589 185.92 644.927 186.79C645.264 187.661 645.433 188.732 645.433 190.004V190.892H634.921V189.081H643.302C643.302 188.312 643.148 187.625 642.84 187.021C642.538 186.418 642.106 185.941 641.544 185.592C640.988 185.243 640.331 185.068 639.573 185.068C638.739 185.068 638.017 185.275 637.407 185.69C636.803 186.098 636.339 186.631 636.013 187.288C635.688 187.945 635.525 188.649 635.525 189.401V190.608C635.525 191.638 635.703 192.511 636.058 193.227C636.419 193.937 636.919 194.479 637.558 194.852C638.197 195.219 638.94 195.402 639.786 195.402C640.337 195.402 640.834 195.325 641.278 195.171C641.728 195.011 642.115 194.775 642.441 194.461C642.766 194.141 643.018 193.745 643.195 193.271L645.22 193.839C645.006 194.526 644.648 195.13 644.145 195.651C643.642 196.165 643.021 196.568 642.281 196.858C641.541 197.142 640.71 197.284 639.786 197.284ZM650.715 188.797V197H648.62V183.364H650.644V185.494H650.821C651.141 184.802 651.626 184.246 652.277 183.825C652.928 183.399 653.769 183.186 654.799 183.186C655.722 183.186 656.53 183.375 657.222 183.754C657.915 184.127 658.453 184.695 658.838 185.459C659.223 186.216 659.415 187.175 659.415 188.335V197H657.32V188.477C657.32 187.406 657.042 186.571 656.486 185.974C655.929 185.37 655.166 185.068 654.195 185.068C653.526 185.068 652.928 185.213 652.402 185.503C651.881 185.793 651.47 186.216 651.168 186.773C650.866 187.329 650.715 188.004 650.715 188.797ZM671.056 188.229V190.182H663.102V188.229H671.056ZM684.402 186.418L682.52 186.95C682.401 186.637 682.227 186.332 681.996 186.036C681.771 185.734 681.463 185.485 681.073 185.29C680.682 185.095 680.182 184.997 679.572 184.997C678.738 184.997 678.042 185.19 677.486 185.574C676.936 185.953 676.66 186.435 676.66 187.021C676.66 187.542 676.85 187.953 677.229 188.255C677.607 188.557 678.199 188.809 679.004 189.01L681.028 189.507C682.248 189.803 683.156 190.256 683.754 190.865C684.352 191.469 684.65 192.247 684.65 193.2C684.65 193.982 684.426 194.68 683.976 195.295C683.532 195.911 682.91 196.396 682.111 196.751C681.312 197.107 680.383 197.284 679.324 197.284C677.933 197.284 676.782 196.982 675.87 196.379C674.959 195.775 674.382 194.893 674.139 193.733L676.128 193.236C676.317 193.97 676.675 194.52 677.202 194.887C677.735 195.254 678.43 195.438 679.288 195.438C680.265 195.438 681.04 195.23 681.614 194.816C682.194 194.396 682.484 193.893 682.484 193.307C682.484 192.833 682.319 192.437 681.987 192.117C681.656 191.792 681.147 191.549 680.46 191.389L678.187 190.857C676.939 190.561 676.021 190.102 675.435 189.48C674.855 188.853 674.565 188.069 674.565 187.128C674.565 186.358 674.781 185.678 675.213 185.086C675.651 184.494 676.246 184.029 676.998 183.692C677.755 183.355 678.614 183.186 679.572 183.186C680.922 183.186 681.981 183.482 682.751 184.074C683.526 184.666 684.076 185.447 684.402 186.418ZM693.344 197.284C692.113 197.284 691.033 196.991 690.104 196.405C689.18 195.819 688.458 195 687.938 193.946C687.423 192.893 687.165 191.661 687.165 190.253C687.165 188.832 687.423 187.592 687.938 186.533C688.458 185.474 689.18 184.651 690.104 184.065C691.033 183.479 692.113 183.186 693.344 183.186C694.575 183.186 695.652 183.479 696.576 184.065C697.505 184.651 698.227 185.474 698.742 186.533C699.263 187.592 699.523 188.832 699.523 190.253C699.523 191.661 699.263 192.893 698.742 193.946C698.227 195 697.505 195.819 696.576 196.405C695.652 196.991 694.575 197.284 693.344 197.284ZM693.344 195.402C694.279 195.402 695.049 195.162 695.652 194.683C696.256 194.203 696.703 193.573 696.993 192.792C697.283 192.011 697.428 191.164 697.428 190.253C697.428 189.341 697.283 188.492 696.993 187.705C696.703 186.918 696.256 186.281 695.652 185.796C695.049 185.311 694.279 185.068 693.344 185.068C692.409 185.068 691.64 185.311 691.036 185.796C690.432 186.281 689.985 186.918 689.695 187.705C689.405 188.492 689.26 189.341 689.26 190.253C689.26 191.164 689.405 192.011 689.695 192.792C689.985 193.573 690.432 194.203 691.036 194.683C691.64 195.162 692.409 195.402 693.344 195.402ZM711.315 191.425V183.364H713.41V197H711.315V194.692H711.173C710.853 195.384 710.356 195.973 709.682 196.458C709.007 196.938 708.155 197.178 707.125 197.178C706.272 197.178 705.515 196.991 704.852 196.618C704.189 196.239 703.668 195.671 703.29 194.914C702.911 194.15 702.721 193.188 702.721 192.028V183.364H704.816V191.886C704.816 192.881 705.095 193.674 705.651 194.266C706.213 194.857 706.929 195.153 707.799 195.153C708.32 195.153 708.85 195.02 709.389 194.754C709.933 194.488 710.389 194.079 710.756 193.529C711.129 192.978 711.315 192.277 711.315 191.425ZM717.248 197V183.364H719.272V185.423H719.414C719.662 184.749 720.112 184.201 720.763 183.781C721.414 183.361 722.148 183.151 722.965 183.151C723.119 183.151 723.311 183.154 723.542 183.159C723.773 183.165 723.948 183.174 724.066 183.186V185.317C723.995 185.299 723.832 185.272 723.578 185.237C723.329 185.195 723.066 185.175 722.787 185.175C722.125 185.175 721.533 185.314 721.012 185.592C720.497 185.864 720.089 186.243 719.787 186.728C719.491 187.208 719.343 187.755 719.343 188.371V197H717.248ZM731.674 197.284C730.396 197.284 729.295 196.982 728.372 196.379C727.448 195.775 726.738 194.943 726.241 193.884C725.744 192.824 725.495 191.614 725.495 190.253C725.495 188.868 725.75 187.646 726.259 186.586C726.774 185.521 727.49 184.689 728.407 184.092C729.33 183.488 730.408 183.186 731.639 183.186C732.597 183.186 733.462 183.364 734.231 183.719C735 184.074 735.631 184.571 736.122 185.21C736.613 185.849 736.918 186.595 737.036 187.447H734.941C734.781 186.826 734.426 186.276 733.876 185.796C733.331 185.311 732.597 185.068 731.674 185.068C730.857 185.068 730.141 185.281 729.526 185.707C728.916 186.128 728.44 186.722 728.096 187.492C727.759 188.255 727.59 189.152 727.59 190.182C727.59 191.235 727.756 192.153 728.088 192.934C728.425 193.715 728.898 194.322 729.508 194.754C730.124 195.186 730.846 195.402 731.674 195.402C732.219 195.402 732.713 195.307 733.157 195.118C733.601 194.929 733.977 194.656 734.284 194.301C734.592 193.946 734.811 193.52 734.941 193.023H737.036C736.918 193.828 736.625 194.553 736.157 195.198C735.696 195.837 735.083 196.346 734.32 196.725C733.562 197.098 732.68 197.284 731.674 197.284ZM745.817 197.284C744.503 197.284 743.369 196.994 742.416 196.414C741.469 195.828 740.738 195.011 740.224 193.964C739.715 192.91 739.46 191.685 739.46 190.288C739.46 188.892 739.715 187.661 740.224 186.595C740.738 185.524 741.455 184.689 742.372 184.092C743.295 183.488 744.372 183.186 745.604 183.186C746.314 183.186 747.015 183.304 747.708 183.541C748.4 183.778 749.03 184.163 749.599 184.695C750.167 185.222 750.619 185.92 750.957 186.79C751.294 187.661 751.463 188.732 751.463 190.004V190.892H740.952V189.081H749.332C749.332 188.312 749.178 187.625 748.871 187.021C748.569 186.418 748.137 185.941 747.574 185.592C747.018 185.243 746.361 185.068 745.604 185.068C744.769 185.068 744.047 185.275 743.437 185.69C742.834 186.098 742.369 186.631 742.044 187.288C741.718 187.945 741.555 188.649 741.555 189.401V190.608C741.555 191.638 741.733 192.511 742.088 193.227C742.449 193.937 742.949 194.479 743.588 194.852C744.227 195.219 744.97 195.402 745.817 195.402C746.367 195.402 746.864 195.325 747.308 195.171C747.758 195.011 748.146 194.775 748.471 194.461C748.797 194.141 749.048 193.745 749.226 193.271L751.25 193.839C751.037 194.526 750.679 195.13 750.176 195.651C749.673 196.165 749.051 196.568 748.311 196.858C747.571 197.142 746.74 197.284 745.817 197.284Z" fill="white"/>
<path d="M566.852 152H564.386C564.241 151.291 563.985 150.668 563.621 150.131C563.263 149.594 562.825 149.143 562.308 148.778C561.798 148.407 561.231 148.129 560.608 147.943C559.985 147.758 559.335 147.665 558.659 147.665C557.426 147.665 556.309 147.976 555.308 148.599C554.314 149.223 553.522 150.141 552.932 151.354C552.348 152.567 552.057 154.055 552.057 155.818C552.057 157.581 552.348 159.07 552.932 160.283C553.522 161.496 554.314 162.414 555.308 163.037C556.309 163.66 557.426 163.972 558.659 163.972C559.335 163.972 559.985 163.879 560.608 163.693C561.231 163.508 561.798 163.232 562.308 162.868C562.825 162.497 563.263 162.043 563.621 161.506C563.985 160.962 564.241 160.339 564.386 159.636H566.852C566.667 160.677 566.329 161.608 565.838 162.43C565.348 163.252 564.738 163.952 564.009 164.528C563.279 165.098 562.461 165.533 561.553 165.831C560.651 166.129 559.687 166.278 558.659 166.278C556.922 166.278 555.378 165.854 554.026 165.006C552.673 164.157 551.609 162.951 550.834 161.386C550.058 159.822 549.67 157.966 549.67 155.818C549.67 153.67 550.058 151.814 550.834 150.25C551.609 148.686 552.673 147.479 554.026 146.631C555.378 145.782 556.922 145.358 558.659 145.358C559.687 145.358 560.651 145.507 561.553 145.805C562.461 146.104 563.279 146.541 564.009 147.118C564.738 147.688 565.348 148.384 565.838 149.206C566.329 150.021 566.667 150.953 566.852 152ZM573.303 145.636V166H570.837V145.636H573.303ZM585.128 144.682L578.565 169.062H576.418L582.98 144.682H585.128ZM604.614 152H602.148C602.002 151.291 601.747 150.668 601.382 150.131C601.025 149.594 600.587 149.143 600.07 148.778C599.56 148.407 598.993 148.129 598.37 147.943C597.747 147.758 597.097 147.665 596.421 147.665C595.188 147.665 594.071 147.976 593.07 148.599C592.076 149.223 591.283 150.141 590.694 151.354C590.11 152.567 589.819 154.055 589.819 155.818C589.819 157.581 590.11 159.07 590.694 160.283C591.283 161.496 592.076 162.414 593.07 163.037C594.071 163.66 595.188 163.972 596.421 163.972C597.097 163.972 597.747 163.879 598.37 163.693C598.993 163.508 599.56 163.232 600.07 162.868C600.587 162.497 601.025 162.043 601.382 161.506C601.747 160.962 602.002 160.339 602.148 159.636H604.614C604.428 160.677 604.09 161.608 603.6 162.43C603.109 163.252 602.499 163.952 601.77 164.528C601.041 165.098 600.222 165.533 599.314 165.831C598.413 166.129 597.448 166.278 596.421 166.278C594.684 166.278 593.14 165.854 591.787 165.006C590.435 164.157 589.371 162.951 588.596 161.386C587.82 159.822 587.432 157.966 587.432 155.818C587.432 153.67 587.82 151.814 588.596 150.25C589.371 148.686 590.435 147.479 591.787 146.631C593.14 145.782 594.684 145.358 596.421 145.358C597.448 145.358 598.413 145.507 599.314 145.805C600.222 146.104 601.041 146.541 601.77 147.118C602.499 147.688 603.109 148.384 603.6 149.206C604.09 150.021 604.428 150.953 604.614 152ZM614.883 166H608.599V145.636H615.161C617.137 145.636 618.827 146.044 620.232 146.859C621.638 147.668 622.715 148.831 623.464 150.349C624.213 151.861 624.587 153.67 624.587 155.778C624.587 157.9 624.21 159.726 623.454 161.257C622.698 162.782 621.598 163.955 620.153 164.777C618.708 165.592 616.951 166 614.883 166ZM611.065 163.812H614.724C616.407 163.812 617.803 163.488 618.91 162.838C620.017 162.188 620.842 161.264 621.386 160.064C621.929 158.864 622.201 157.436 622.201 155.778C622.201 154.134 621.933 152.719 621.396 151.533C620.859 150.339 620.057 149.425 618.989 148.788C617.922 148.145 616.593 147.824 615.002 147.824H611.065V163.812Z" fill="white"/>
<path d="M490.003 180.909C489.854 179.65 489.249 178.672 488.188 177.976C487.128 177.28 485.827 176.932 484.286 176.932C483.159 176.932 482.173 177.114 481.327 177.479C480.491 177.843 479.836 178.345 479.364 178.983C478.9 179.621 478.668 180.346 478.668 181.158C478.668 181.837 478.829 182.421 479.152 182.91C479.484 183.391 479.906 183.793 480.42 184.116C480.934 184.431 481.472 184.692 482.036 184.899C482.599 185.098 483.117 185.259 483.589 185.384L486.175 186.08C486.838 186.254 487.575 186.494 488.387 186.8C489.207 187.107 489.99 187.525 490.736 188.056C491.49 188.578 492.112 189.249 492.6 190.069C493.089 190.89 493.334 191.896 493.334 193.089C493.334 194.465 492.973 195.708 492.252 196.818C491.54 197.929 490.496 198.811 489.12 199.466C487.753 200.12 486.092 200.447 484.136 200.447C482.313 200.447 480.735 200.153 479.401 199.565C478.075 198.977 477.031 198.156 476.269 197.104C475.515 196.052 475.088 194.83 474.989 193.438H478.17C478.253 194.399 478.576 195.194 479.14 195.824C479.712 196.445 480.433 196.909 481.303 197.216C482.181 197.514 483.125 197.663 484.136 197.663C485.313 197.663 486.369 197.473 487.306 197.092C488.242 196.702 488.984 196.164 489.531 195.476C490.077 194.78 490.351 193.968 490.351 193.04C490.351 192.195 490.115 191.507 489.642 190.977C489.17 190.446 488.549 190.015 487.778 189.684C487.007 189.353 486.175 189.062 485.28 188.814L482.148 187.919C480.159 187.347 478.585 186.531 477.425 185.471C476.265 184.41 475.685 183.022 475.685 181.307C475.685 179.882 476.07 178.639 476.841 177.578C477.619 176.509 478.663 175.681 479.973 175.092C481.29 174.496 482.761 174.197 484.385 174.197C486.026 174.197 487.484 174.492 488.76 175.08C490.036 175.66 491.047 176.455 491.793 177.466C492.547 178.477 492.944 179.625 492.986 180.909H490.003ZM505.76 200.398C504.036 200.398 502.524 199.988 501.223 199.167C499.93 198.347 498.92 197.199 498.19 195.724C497.47 194.25 497.109 192.526 497.109 190.554C497.109 188.565 497.47 186.829 498.19 185.346C498.92 183.863 499.93 182.711 501.223 181.891C502.524 181.071 504.036 180.661 505.76 180.661C507.483 180.661 508.991 181.071 510.284 181.891C511.585 182.711 512.596 183.863 513.316 185.346C514.046 186.829 514.41 188.565 514.41 190.554C514.41 192.526 514.046 194.25 513.316 195.724C512.596 197.199 511.585 198.347 510.284 199.167C508.991 199.988 507.483 200.398 505.76 200.398ZM505.76 197.763C507.069 197.763 508.146 197.427 508.991 196.756C509.836 196.085 510.462 195.202 510.868 194.109C511.274 193.015 511.477 191.83 511.477 190.554C511.477 189.278 511.274 188.089 510.868 186.987C510.462 185.885 509.836 184.994 508.991 184.315C508.146 183.635 507.069 183.295 505.76 183.295C504.45 183.295 503.373 183.635 502.528 184.315C501.683 184.994 501.057 185.885 500.651 186.987C500.245 188.089 500.042 189.278 500.042 190.554C500.042 191.83 500.245 193.015 500.651 194.109C501.057 195.202 501.683 196.085 502.528 196.756C503.373 197.427 504.45 197.763 505.76 197.763ZM521.821 174.545V200H518.888V174.545H521.821ZM527.193 200V180.909H530.127V200H527.193ZM528.685 177.727C528.113 177.727 527.62 177.533 527.206 177.143C526.8 176.754 526.597 176.286 526.597 175.739C526.597 175.192 526.8 174.724 527.206 174.334C527.62 173.945 528.113 173.75 528.685 173.75C529.257 173.75 529.746 173.945 530.152 174.334C530.566 174.724 530.773 175.192 530.773 175.739C530.773 176.286 530.566 176.754 530.152 177.143C529.746 177.533 529.257 177.727 528.685 177.727ZM542.708 200.398C541.117 200.398 539.713 199.996 538.494 199.192C537.276 198.38 536.324 197.237 535.636 195.762C534.948 194.279 534.604 192.526 534.604 190.504C534.604 188.499 534.948 186.759 535.636 185.284C536.324 183.809 537.281 182.67 538.507 181.866C539.733 181.062 541.15 180.661 542.758 180.661C544.001 180.661 544.982 180.868 545.703 181.282C546.432 181.688 546.988 182.152 547.369 182.674C547.758 183.188 548.061 183.61 548.276 183.942H548.525V174.545H551.458V200H548.624V197.067H548.276C548.061 197.415 547.754 197.854 547.356 198.384C546.959 198.906 546.391 199.374 545.654 199.789C544.916 200.195 543.934 200.398 542.708 200.398ZM543.106 197.763C544.282 197.763 545.277 197.456 546.089 196.843C546.901 196.222 547.518 195.364 547.941 194.27C548.363 193.168 548.574 191.896 548.574 190.455C548.574 189.029 548.367 187.782 547.953 186.713C547.539 185.636 546.925 184.799 546.113 184.203C545.301 183.598 544.299 183.295 543.106 183.295C541.863 183.295 540.827 183.614 539.998 184.252C539.178 184.882 538.561 185.74 538.146 186.825C537.74 187.902 537.537 189.112 537.537 190.455C537.537 191.813 537.745 193.048 538.159 194.158C538.581 195.26 539.203 196.139 540.023 196.793C540.852 197.44 541.879 197.763 543.106 197.763ZM567.379 174.545H570.462V192.741C570.462 194.366 570.164 195.745 569.567 196.88C568.97 198.016 568.129 198.877 567.044 199.466C565.958 200.054 564.678 200.348 563.203 200.348C561.811 200.348 560.573 200.095 559.487 199.59C558.402 199.076 557.548 198.347 556.927 197.402C556.305 196.458 555.994 195.335 555.994 194.034H559.027C559.027 194.755 559.205 195.385 559.562 195.923C559.926 196.454 560.423 196.868 561.053 197.166C561.683 197.464 562.4 197.614 563.203 197.614C564.09 197.614 564.844 197.427 565.465 197.054C566.087 196.681 566.559 196.135 566.882 195.414C567.214 194.685 567.379 193.794 567.379 192.741V174.545ZM590.559 180.909C590.41 179.65 589.805 178.672 588.745 177.976C587.684 177.28 586.383 176.932 584.842 176.932C583.715 176.932 582.729 177.114 581.884 177.479C581.047 177.843 580.393 178.345 579.92 178.983C579.456 179.621 579.224 180.346 579.224 181.158C579.224 181.837 579.386 182.421 579.709 182.91C580.04 183.391 580.463 183.793 580.977 184.116C581.49 184.431 582.029 184.692 582.593 184.899C583.156 185.098 583.674 185.259 584.146 185.384L586.731 186.08C587.394 186.254 588.132 186.494 588.944 186.8C589.764 187.107 590.547 187.525 591.293 188.056C592.047 188.578 592.668 189.249 593.157 190.069C593.646 190.89 593.89 191.896 593.89 193.089C593.89 194.465 593.53 195.708 592.809 196.818C592.097 197.929 591.052 198.811 589.677 199.466C588.31 200.12 586.648 200.447 584.693 200.447C582.87 200.447 581.292 200.153 579.958 199.565C578.632 198.977 577.588 198.156 576.825 197.104C576.071 196.052 575.645 194.83 575.545 193.438H578.727C578.81 194.399 579.133 195.194 579.697 195.824C580.268 196.445 580.989 196.909 581.859 197.216C582.738 197.514 583.682 197.663 584.693 197.663C585.87 197.663 586.926 197.473 587.862 197.092C588.799 196.702 589.54 196.164 590.087 195.476C590.634 194.78 590.907 193.968 590.907 193.04C590.907 192.195 590.671 191.507 590.199 190.977C589.727 190.446 589.105 190.015 588.335 189.684C587.564 189.353 586.731 189.062 585.836 188.814L582.704 187.919C580.716 187.347 579.141 186.531 577.981 185.471C576.821 184.41 576.241 183.022 576.241 181.307C576.241 179.882 576.627 178.639 577.397 177.578C578.176 176.509 579.22 175.681 580.529 175.092C581.847 174.496 583.318 174.197 584.942 174.197C586.582 174.197 588.041 174.492 589.317 175.08C590.593 175.66 591.604 176.455 592.349 177.466C593.103 178.477 593.501 179.625 593.542 180.909H590.559Z" fill="white"/>
<path d="M224.636 218V171.455H240.364C244 171.455 246.985 172.076 249.318 173.318C251.652 174.545 253.379 176.235 254.5 178.386C255.621 180.538 256.182 182.985 256.182 185.727C256.182 188.47 255.621 190.902 254.5 193.023C253.379 195.144 251.659 196.811 249.341 198.023C247.023 199.22 244.061 199.818 240.455 199.818H227.727V194.727H240.273C242.758 194.727 244.758 194.364 246.273 193.636C247.803 192.909 248.909 191.879 249.591 190.545C250.288 189.197 250.636 187.591 250.636 185.727C250.636 183.864 250.288 182.235 249.591 180.841C248.894 179.447 247.78 178.371 246.25 177.614C244.72 176.841 242.697 176.455 240.182 176.455H230.273V218H224.636ZM246.545 197.091L258 218H251.455L240.182 197.091H246.545ZM279.108 218.727C275.744 218.727 272.843 217.985 270.403 216.5C267.979 215 266.108 212.909 264.79 210.227C263.487 207.53 262.835 204.394 262.835 200.818C262.835 197.242 263.487 194.091 264.79 191.364C266.108 188.621 267.941 186.485 270.29 184.955C272.653 183.409 275.411 182.636 278.562 182.636C280.381 182.636 282.176 182.939 283.949 183.545C285.722 184.152 287.335 185.136 288.79 186.5C290.244 187.848 291.403 189.636 292.267 191.864C293.131 194.091 293.562 196.833 293.562 200.091V202.364H266.653V197.727H288.108C288.108 195.758 287.714 194 286.926 192.455C286.153 190.909 285.047 189.689 283.608 188.795C282.184 187.902 280.502 187.455 278.562 187.455C276.426 187.455 274.578 187.985 273.017 189.045C271.472 190.091 270.282 191.455 269.449 193.136C268.616 194.818 268.199 196.621 268.199 198.545V201.636C268.199 204.273 268.653 206.508 269.562 208.341C270.487 210.159 271.767 211.545 273.403 212.5C275.04 213.439 276.941 213.909 279.108 213.909C280.517 213.909 281.79 213.712 282.926 213.318C284.078 212.909 285.07 212.303 285.903 211.5C286.737 210.682 287.381 209.667 287.835 208.455L293.017 209.909C292.472 211.667 291.555 213.212 290.267 214.545C288.979 215.864 287.388 216.894 285.494 217.636C283.6 218.364 281.472 218.727 279.108 218.727ZM311.994 218.818C309.782 218.818 307.775 218.402 305.972 217.568C304.169 216.72 302.737 215.5 301.676 213.909C300.616 212.303 300.085 210.364 300.085 208.091C300.085 206.091 300.479 204.47 301.267 203.227C302.055 201.97 303.108 200.985 304.426 200.273C305.744 199.561 307.199 199.03 308.79 198.682C310.396 198.318 312.009 198.03 313.631 197.818C315.752 197.545 317.472 197.341 318.79 197.205C320.123 197.053 321.093 196.803 321.699 196.455C322.32 196.106 322.631 195.5 322.631 194.636V194.455C322.631 192.212 322.017 190.47 320.79 189.227C319.578 187.985 317.737 187.364 315.267 187.364C312.706 187.364 310.699 187.924 309.244 189.045C307.79 190.167 306.767 191.364 306.176 192.636L301.085 190.818C301.994 188.697 303.206 187.045 304.722 185.864C306.252 184.667 307.919 183.833 309.722 183.364C311.54 182.879 313.328 182.636 315.085 182.636C316.206 182.636 317.494 182.773 318.949 183.045C320.419 183.303 321.835 183.841 323.199 184.659C324.578 185.477 325.722 186.712 326.631 188.364C327.54 190.015 327.994 192.227 327.994 195V218H322.631V213.273H322.358C321.994 214.03 321.388 214.841 320.54 215.705C319.691 216.568 318.563 217.303 317.153 217.909C315.744 218.515 314.025 218.818 311.994 218.818ZM312.812 214C314.934 214 316.722 213.583 318.176 212.75C319.646 211.917 320.752 210.841 321.494 209.523C322.252 208.205 322.631 206.818 322.631 205.364V200.455C322.403 200.727 321.903 200.977 321.131 201.205C320.373 201.417 319.494 201.606 318.494 201.773C317.509 201.924 316.547 202.061 315.608 202.182C314.684 202.288 313.934 202.379 313.358 202.455C311.964 202.636 310.661 202.932 309.449 203.341C308.252 203.735 307.282 204.333 306.54 205.136C305.813 205.924 305.449 207 305.449 208.364C305.449 210.227 306.138 211.636 307.517 212.591C308.911 213.53 310.676 214 312.812 214ZM351.966 218.727C348.693 218.727 345.875 217.955 343.511 216.409C341.148 214.864 339.33 212.735 338.057 210.023C336.784 207.311 336.148 204.212 336.148 200.727C336.148 197.182 336.799 194.053 338.102 191.341C339.42 188.614 341.254 186.485 343.602 184.955C345.966 183.409 348.723 182.636 351.875 182.636C354.33 182.636 356.542 183.091 358.511 184C360.481 184.909 362.095 186.182 363.352 187.818C364.61 189.455 365.39 191.364 365.693 193.545H360.33C359.92 191.955 359.011 190.545 357.602 189.318C356.208 188.076 354.33 187.455 351.966 187.455C349.875 187.455 348.042 188 346.466 189.091C344.905 190.167 343.686 191.689 342.807 193.659C341.943 195.614 341.511 197.909 341.511 200.545C341.511 203.242 341.936 205.591 342.784 207.591C343.648 209.591 344.86 211.144 346.42 212.25C347.996 213.356 349.845 213.909 351.966 213.909C353.36 213.909 354.625 213.667 355.761 213.182C356.898 212.697 357.86 212 358.648 211.091C359.436 210.182 359.996 209.091 360.33 207.818H365.693C365.39 209.879 364.64 211.735 363.443 213.386C362.261 215.023 360.693 216.326 358.739 217.295C356.799 218.25 354.542 218.727 351.966 218.727ZM388.716 183.091V187.636H370.625V183.091H388.716ZM375.898 174.727H381.261V208C381.261 209.515 381.481 210.652 381.92 211.409C382.375 212.152 382.951 212.652 383.648 212.909C384.36 213.152 385.11 213.273 385.898 213.273C386.489 213.273 386.973 213.242 387.352 213.182C387.731 213.106 388.034 213.045 388.261 213L389.352 217.818C388.989 217.955 388.481 218.091 387.83 218.227C387.178 218.379 386.352 218.455 385.352 218.455C383.837 218.455 382.352 218.129 380.898 217.477C379.458 216.826 378.261 215.833 377.307 214.5C376.367 213.167 375.898 211.485 375.898 209.455V174.727ZM415.33 171.455H420.966V204.727C420.966 207.697 420.42 210.22 419.33 212.295C418.239 214.371 416.701 215.947 414.716 217.023C412.731 218.098 410.39 218.636 407.693 218.636C405.148 218.636 402.883 218.174 400.898 217.25C398.913 216.311 397.352 214.977 396.216 213.25C395.08 211.523 394.511 209.47 394.511 207.091H400.057C400.057 208.409 400.383 209.561 401.034 210.545C401.701 211.515 402.61 212.273 403.761 212.818C404.913 213.364 406.223 213.636 407.693 213.636C409.314 213.636 410.693 213.295 411.83 212.614C412.966 211.932 413.83 210.932 414.42 209.614C415.027 208.28 415.33 206.652 415.33 204.727V171.455ZM457.716 183.091C457.443 180.788 456.337 179 454.398 177.727C452.458 176.455 450.08 175.818 447.261 175.818C445.201 175.818 443.398 176.152 441.852 176.818C440.322 177.485 439.125 178.402 438.261 179.568C437.413 180.735 436.989 182.061 436.989 183.545C436.989 184.788 437.284 185.856 437.875 186.75C438.481 187.629 439.254 188.364 440.193 188.955C441.133 189.53 442.117 190.008 443.148 190.386C444.178 190.75 445.125 191.045 445.989 191.273L450.716 192.545C451.928 192.864 453.277 193.303 454.761 193.864C456.261 194.424 457.693 195.189 459.057 196.159C460.436 197.114 461.572 198.341 462.466 199.841C463.36 201.341 463.807 203.182 463.807 205.364C463.807 207.879 463.148 210.152 461.83 212.182C460.527 214.212 458.617 215.826 456.102 217.023C453.602 218.22 450.564 218.818 446.989 218.818C443.655 218.818 440.769 218.28 438.33 217.205C435.905 216.129 433.996 214.629 432.602 212.705C431.223 210.78 430.443 208.545 430.261 206H436.08C436.231 207.758 436.822 209.212 437.852 210.364C438.898 211.5 440.216 212.348 441.807 212.909C443.413 213.455 445.14 213.727 446.989 213.727C449.14 213.727 451.072 213.379 452.784 212.682C454.496 211.97 455.852 210.985 456.852 209.727C457.852 208.455 458.352 206.97 458.352 205.273C458.352 203.727 457.92 202.47 457.057 201.5C456.193 200.53 455.057 199.742 453.648 199.136C452.239 198.53 450.716 198 449.08 197.545L443.352 195.909C439.716 194.864 436.837 193.371 434.716 191.432C432.595 189.492 431.534 186.955 431.534 183.818C431.534 181.212 432.239 178.939 433.648 177C435.072 175.045 436.981 173.53 439.375 172.455C441.784 171.364 444.473 170.818 447.443 170.818C450.443 170.818 453.11 171.356 455.443 172.432C457.777 173.492 459.625 174.947 460.989 176.795C462.367 178.644 463.095 180.742 463.17 183.091H457.716Z" fill="white"/>
<path d="M356.665 44H352.261C352.001 42.7334 351.545 41.6207 350.894 40.6619C350.255 39.7031 349.474 38.8982 348.55 38.2472C347.639 37.5843 346.627 37.0871 345.514 36.7557C344.402 36.4242 343.241 36.2585 342.034 36.2585C339.832 36.2585 337.838 36.8149 336.05 37.9276C334.275 39.0402 332.86 40.6797 331.807 42.8459C330.765 45.0121 330.244 47.6695 330.244 50.8182C330.244 53.9669 330.765 56.6243 331.807 58.7905C332.86 60.9567 334.275 62.5961 336.05 63.7088C337.838 64.8215 339.832 65.3778 342.034 65.3778C343.241 65.3778 344.402 65.2121 345.514 64.8807C346.627 64.5492 347.639 64.058 348.55 63.407C349.474 62.7441 350.255 61.9332 350.894 60.9744C351.545 60.0038 352.001 58.8911 352.261 57.6364H356.665C356.333 59.4948 355.73 61.1579 354.854 62.6257C353.978 64.0935 352.889 65.3423 351.587 66.3722C350.285 67.3902 348.823 68.1655 347.201 68.6982C345.591 69.2308 343.869 69.4972 342.034 69.4972C338.933 69.4972 336.175 68.7396 333.76 67.2244C331.345 65.7093 329.445 63.5549 328.06 60.7614C326.675 57.9678 325.983 54.6534 325.983 50.8182C325.983 46.983 326.675 43.6686 328.06 40.875C329.445 38.0814 331.345 35.9271 333.76 34.4119C336.175 32.8968 338.933 32.1392 342.034 32.1392C343.869 32.1392 345.591 32.4055 347.201 32.9382C348.823 33.4709 350.285 34.2521 351.587 35.282C352.889 36.3 353.978 37.5428 354.854 39.0107C355.73 40.4666 356.333 42.1297 356.665 44ZM383.667 41.7273C383.454 39.928 382.59 38.5312 381.074 37.5369C379.559 36.5426 377.701 36.0455 375.499 36.0455C373.889 36.0455 372.481 36.3059 371.273 36.8267C370.078 37.3475 369.143 38.0637 368.468 38.9751C367.805 39.8866 367.474 40.9223 367.474 42.0824C367.474 43.053 367.704 43.8875 368.166 44.5859C368.64 45.2725 369.243 45.8466 369.977 46.3082C370.711 46.758 371.48 47.1309 372.285 47.4268C373.09 47.7109 373.83 47.9418 374.505 48.1193L378.198 49.1136C379.145 49.3622 380.198 49.7055 381.358 50.1435C382.53 50.5814 383.649 51.1792 384.714 51.9368C385.791 52.6825 386.679 53.6413 387.378 54.8132C388.076 55.9851 388.425 57.4233 388.425 59.1278C388.425 61.0928 387.91 62.8684 386.881 64.4545C385.863 66.0407 384.371 67.3014 382.406 68.2365C380.453 69.1716 378.08 69.6392 375.286 69.6392C372.682 69.6392 370.427 69.219 368.521 68.3786C366.627 67.5381 365.136 66.3662 364.047 64.8629C362.97 63.3596 362.36 61.6136 362.218 59.625H366.763C366.882 60.9981 367.343 62.1345 368.148 63.0341C368.965 63.9219 369.995 64.5848 371.238 65.0227C372.492 65.4489 373.842 65.6619 375.286 65.6619C376.967 65.6619 378.476 65.3897 379.814 64.8452C381.151 64.2888 382.211 63.5194 382.992 62.5369C383.773 61.5426 384.164 60.3826 384.164 59.0568C384.164 57.8494 383.827 56.867 383.152 56.1094C382.477 55.3518 381.589 54.7363 380.488 54.2628C379.388 53.7893 378.198 53.375 376.92 53.0199L372.445 51.7415C369.604 50.9247 367.355 49.7588 365.698 48.2436C364.041 46.7285 363.212 44.7457 363.212 42.2955C363.212 40.2595 363.763 38.4839 364.863 36.9688C365.976 35.4418 367.468 34.258 369.338 33.4176C371.22 32.5653 373.321 32.1392 375.641 32.1392C377.985 32.1392 380.068 32.5594 381.891 33.3999C383.714 34.2285 385.158 35.3648 386.224 36.8089C387.301 38.2531 387.869 39.8925 387.928 41.7273H383.667ZM415.551 41.7273C415.338 39.928 414.474 38.5312 412.959 37.5369C411.444 36.5426 409.586 36.0455 407.384 36.0455C405.774 36.0455 404.365 36.3059 403.158 36.8267C401.962 37.3475 401.027 38.0637 400.353 38.9751C399.69 39.8866 399.358 40.9223 399.358 42.0824C399.358 43.053 399.589 43.8875 400.051 44.5859C400.524 45.2725 401.128 45.8466 401.862 46.3082C402.596 46.758 403.365 47.1309 404.17 47.4268C404.975 47.7109 405.715 47.9418 406.39 48.1193L410.083 49.1136C411.03 49.3622 412.083 49.7055 413.243 50.1435C414.415 50.5814 415.534 51.1792 416.599 51.9368C417.676 52.6825 418.564 53.6413 419.262 54.8132C419.961 55.9851 420.31 57.4233 420.31 59.1278C420.31 61.0928 419.795 62.8684 418.765 64.4545C417.747 66.0407 416.256 67.3014 414.291 68.2365C412.338 69.1716 409.964 69.6392 407.171 69.6392C404.567 69.6392 402.312 69.219 400.406 68.3786C398.512 67.5381 397.02 66.3662 395.931 64.8629C394.854 63.3596 394.245 61.6136 394.103 59.625H398.648C398.766 60.9981 399.228 62.1345 400.033 63.0341C400.85 63.9219 401.88 64.5848 403.123 65.0227C404.377 65.4489 405.727 65.6619 407.171 65.6619C408.852 65.6619 410.361 65.3897 411.699 64.8452C413.036 64.2888 414.096 63.5194 414.877 62.5369C415.658 61.5426 416.049 60.3826 416.049 59.0568C416.049 57.8494 415.711 56.867 415.037 56.1094C414.362 55.3518 413.474 54.7363 412.373 54.2628C411.272 53.7893 410.083 53.375 408.804 53.0199L404.33 51.7415C401.489 50.9247 399.24 49.7588 397.583 48.2436C395.926 46.7285 395.097 44.7457 395.097 42.2955C395.097 40.2595 395.647 38.4839 396.748 36.9688C397.861 35.4418 399.352 34.258 401.223 33.4176C403.105 32.5653 405.206 32.1392 407.526 32.1392C409.87 32.1392 411.953 32.5594 413.776 33.3999C415.599 34.2285 417.043 35.3648 418.108 36.8089C419.185 38.2531 419.754 39.8925 419.813 41.7273H415.551ZM439.837 30.9318L428.118 74.4688H424.283L436.002 30.9318H439.837ZM445.372 69V32.6364H449.776V48.8295H469.165V32.6364H473.568V69H469.165V52.7358H449.776V69H445.372ZM480.395 36.5426V32.6364H507.668V36.5426H496.233V69H491.83V36.5426H480.395ZM514.464 32.6364H519.72L532.078 62.821H532.504L544.862 32.6364H550.117V69H545.998V41.3722H545.643L534.279 69H530.302L518.938 41.3722H518.583V69H514.464V32.6364ZM558.946 69V32.6364H563.35V65.0938H580.253V69H558.946Z" fill="white"/>
<path d="M150.537 62H147.767L155.778 40.1818H158.506L166.517 62H163.747L157.227 43.6335H157.057L150.537 62ZM151.56 53.4773H162.724V55.821H151.56V53.4773ZM172.089 52.1562V62H169.575V45.6364H172.004V48.1932H172.217C172.6 47.3622 173.183 46.6946 173.964 46.1903C174.745 45.679 175.754 45.4233 176.989 45.4233C178.097 45.4233 179.067 45.6506 179.898 46.1051C180.729 46.5526 181.375 47.2344 181.837 48.1506C182.298 49.0597 182.529 50.2102 182.529 51.6023V62H180.015V51.7727C180.015 50.4872 179.681 49.4858 179.013 48.7685C178.346 48.044 177.43 47.6818 176.265 47.6818C175.462 47.6818 174.745 47.8558 174.113 48.2038C173.488 48.5518 172.994 49.0597 172.632 49.7273C172.27 50.3949 172.089 51.2045 172.089 52.1562ZM193.729 68.4773C192.514 68.4773 191.47 68.321 190.596 68.0085C189.723 67.7031 188.995 67.2983 188.412 66.794C187.837 66.2969 187.379 65.7642 187.038 65.196L189.041 63.7898C189.268 64.0881 189.556 64.429 189.904 64.8125C190.252 65.2031 190.728 65.5405 191.331 65.8246C191.942 66.1158 192.741 66.2614 193.729 66.2614C195.05 66.2614 196.14 65.9418 196.999 65.3026C197.858 64.6634 198.288 63.6619 198.288 62.2983V58.9744H198.075C197.89 59.2727 197.628 59.642 197.287 60.0824C196.953 60.5156 196.47 60.9027 195.838 61.2436C195.213 61.5774 194.368 61.7443 193.302 61.7443C191.981 61.7443 190.795 61.4318 189.744 60.8068C188.7 60.1818 187.873 59.2727 187.262 58.0795C186.658 56.8864 186.356 55.4375 186.356 53.733C186.356 52.0568 186.651 50.5973 187.241 49.3544C187.83 48.1044 188.65 47.1385 189.702 46.4567C190.753 45.7678 191.967 45.4233 193.345 45.4233C194.41 45.4233 195.256 45.6009 195.881 45.956C196.513 46.304 196.996 46.7017 197.329 47.1491C197.67 47.5895 197.933 47.9517 198.118 48.2358H198.373V45.6364H200.802V62.4688C200.802 63.875 200.483 65.0185 199.844 65.8991C199.211 66.7869 198.359 67.4368 197.287 67.8487C196.221 68.2678 195.035 68.4773 193.729 68.4773ZM193.643 59.4858C194.652 59.4858 195.504 59.255 196.2 58.7933C196.896 58.3317 197.425 57.6676 197.787 56.8011C198.15 55.9347 198.331 54.8977 198.331 53.6903C198.331 52.5114 198.153 51.4709 197.798 50.5689C197.443 49.6669 196.917 48.9602 196.221 48.4489C195.525 47.9375 194.666 47.6818 193.643 47.6818C192.578 47.6818 191.69 47.9517 190.98 48.4915C190.277 49.0312 189.748 49.7557 189.393 50.6648C189.045 51.5739 188.871 52.5824 188.871 53.6903C188.871 54.8267 189.048 55.8317 189.403 56.7053C189.765 57.5717 190.298 58.2536 191.001 58.7507C191.711 59.2408 192.592 59.4858 193.643 59.4858ZM215.717 55.3097V45.6364H218.231V62H215.717V59.2301H215.547C215.163 60.0611 214.567 60.7678 213.757 61.3501C212.947 61.9254 211.925 62.2131 210.689 62.2131C209.666 62.2131 208.757 61.9893 207.961 61.5419C207.166 61.0874 206.541 60.4055 206.086 59.4964C205.632 58.5803 205.405 57.4261 205.405 56.0341V45.6364H207.919V55.8636C207.919 57.0568 208.253 58.0085 208.92 58.7188C209.595 59.429 210.454 59.7841 211.498 59.7841C212.123 59.7841 212.759 59.6243 213.405 59.3047C214.059 58.9851 214.606 58.495 215.046 57.8345C215.493 57.174 215.717 56.3324 215.717 55.3097ZM225.35 40.1818V62H222.836V40.1818H225.35ZM234.771 62.3835C233.734 62.3835 232.793 62.1882 231.948 61.7976C231.102 61.3999 230.431 60.8281 229.934 60.0824C229.437 59.3295 229.188 58.4205 229.188 57.3551C229.188 56.4176 229.373 55.6577 229.742 55.0753C230.112 54.4858 230.605 54.0241 231.223 53.6903C231.841 53.3565 232.523 53.108 233.269 52.9446C234.021 52.7741 234.778 52.6392 235.538 52.5398C236.532 52.4119 237.338 52.3161 237.956 52.2521C238.581 52.1811 239.036 52.0639 239.32 51.9006C239.611 51.7372 239.757 51.4531 239.757 51.0483V50.9631C239.757 49.9119 239.469 49.0952 238.894 48.5128C238.325 47.9304 237.463 47.6392 236.305 47.6392C235.105 47.6392 234.164 47.902 233.482 48.4276C232.8 48.9531 232.32 49.5142 232.044 50.1108L229.657 49.2585C230.083 48.2642 230.651 47.4901 231.362 46.9361C232.079 46.375 232.86 45.9844 233.705 45.7642C234.558 45.5369 235.396 45.4233 236.22 45.4233C236.745 45.4233 237.349 45.4872 238.031 45.6151C238.72 45.7358 239.384 45.9879 240.023 46.3714C240.669 46.755 241.205 47.3338 241.632 48.108C242.058 48.8821 242.271 49.919 242.271 51.2188V62H239.757V59.7841H239.629C239.458 60.1392 239.174 60.5192 238.776 60.924C238.379 61.3288 237.85 61.6733 237.189 61.9574C236.529 62.2415 235.722 62.3835 234.771 62.3835ZM235.154 60.125C236.149 60.125 236.987 59.9297 237.669 59.5391C238.357 59.1484 238.876 58.6442 239.224 58.0263C239.579 57.4084 239.757 56.7585 239.757 56.0767V53.7756C239.65 53.9034 239.416 54.0206 239.053 54.1271C238.698 54.2266 238.286 54.3153 237.818 54.3935C237.356 54.4645 236.905 54.5284 236.465 54.5852C236.031 54.6349 235.68 54.6776 235.41 54.7131C234.757 54.7983 234.146 54.9368 233.578 55.1286C233.017 55.3132 232.562 55.5937 232.214 55.9702C231.873 56.3395 231.703 56.8437 231.703 57.483C231.703 58.3565 232.026 59.017 232.672 59.4645C233.325 59.9048 234.153 60.125 235.154 60.125ZM246.86 62V45.6364H249.289V48.108H249.459C249.757 47.2983 250.297 46.6413 251.078 46.1371C251.86 45.6328 252.74 45.3807 253.721 45.3807C253.905 45.3807 254.136 45.3842 254.413 45.3913C254.69 45.3984 254.9 45.4091 255.042 45.4233V47.9801C254.956 47.9588 254.761 47.9268 254.456 47.8842C254.157 47.8345 253.841 47.8097 253.507 47.8097C252.712 47.8097 252.002 47.9766 251.377 48.3104C250.759 48.6371 250.269 49.0916 249.907 49.674C249.551 50.2493 249.374 50.9062 249.374 51.6449V62H246.86ZM265.016 40.1818H267.658V55.7784C267.658 57.1705 267.402 58.353 266.891 59.326C266.379 60.299 265.659 61.0376 264.728 61.5419C263.798 62.0462 262.7 62.2983 261.436 62.2983C260.243 62.2983 259.181 62.0817 258.251 61.6484C257.32 61.2081 256.589 60.5831 256.056 59.7734C255.524 58.9638 255.257 58.0014 255.257 56.8864H257.857C257.857 57.5043 258.009 58.044 258.315 58.5057C258.627 58.9602 259.053 59.3153 259.593 59.571C260.133 59.8267 260.747 59.9545 261.436 59.9545C262.196 59.9545 262.843 59.7947 263.375 59.4751C263.908 59.1555 264.313 58.6868 264.59 58.0689C264.874 57.4439 265.016 56.6804 265.016 55.7784V40.1818ZM284.884 45.6364C284.757 44.5568 284.238 43.7188 283.329 43.1222C282.42 42.5256 281.305 42.2273 279.984 42.2273C279.018 42.2273 278.173 42.3835 277.448 42.696C276.731 43.0085 276.17 43.4382 275.765 43.9851C275.367 44.532 275.169 45.1534 275.169 45.8494C275.169 46.4318 275.307 46.9325 275.584 47.3516C275.868 47.7635 276.23 48.108 276.671 48.3849C277.111 48.6548 277.573 48.8786 278.056 49.0561C278.539 49.2266 278.982 49.3651 279.387 49.4716L281.603 50.0682C282.171 50.2173 282.803 50.4233 283.499 50.6861C284.203 50.9489 284.874 51.3075 285.513 51.7621C286.159 52.2095 286.692 52.7848 287.111 53.4879C287.53 54.1911 287.74 55.054 287.74 56.0767C287.74 57.2557 287.431 58.321 286.813 59.2727C286.202 60.2244 285.307 60.9808 284.128 61.5419C282.956 62.103 281.532 62.3835 279.856 62.3835C278.294 62.3835 276.941 62.1314 275.797 61.6271C274.661 61.1229 273.766 60.4197 273.112 59.5178C272.466 58.6158 272.1 57.5682 272.015 56.375H274.742C274.813 57.1989 275.09 57.8807 275.573 58.4205C276.063 58.9531 276.681 59.3509 277.427 59.6136C278.18 59.8693 278.99 59.9972 279.856 59.9972C280.865 59.9972 281.77 59.8338 282.573 59.5071C283.375 59.1733 284.011 58.7116 284.48 58.1222C284.948 57.5256 285.183 56.8295 285.183 56.0341C285.183 55.3097 284.98 54.7202 284.575 54.2656C284.171 53.8111 283.638 53.4418 282.977 53.1577C282.317 52.8736 281.603 52.625 280.836 52.4119L278.151 51.6449C276.447 51.1548 275.097 50.4553 274.103 49.5462C273.109 48.6371 272.612 47.4474 272.612 45.9773C272.612 44.7557 272.942 43.6903 273.602 42.7812C274.27 41.8651 275.165 41.1548 276.287 40.6506C277.416 40.1392 278.677 39.8835 280.069 39.8835C281.475 39.8835 282.725 40.1357 283.819 40.6399C284.913 41.1371 285.779 41.8189 286.419 42.6854C287.065 43.5518 287.406 44.5355 287.441 45.6364H284.884Z" fill="white"/>
<path d="M706.409 208C706.097 207.044 705.685 206.187 705.173 205.429C704.671 204.662 704.07 204.009 703.369 203.469C702.678 202.929 701.892 202.517 701.011 202.233C700.131 201.949 699.165 201.807 698.114 201.807C696.39 201.807 694.823 202.252 693.412 203.142C692.001 204.032 690.879 205.344 690.045 207.077C689.212 208.81 688.795 210.936 688.795 213.455C688.795 215.973 689.217 218.099 690.06 219.832C690.902 221.565 692.044 222.877 693.483 223.767C694.922 224.657 696.542 225.102 698.341 225.102C700.008 225.102 701.475 224.747 702.744 224.037C704.023 223.317 705.017 222.304 705.727 220.997C706.447 219.681 706.807 218.133 706.807 216.352L707.886 216.58H699.136V213.455H710.216V216.58C710.216 218.975 709.705 221.059 708.682 222.83C707.669 224.6 706.267 225.973 704.477 226.949C702.697 227.915 700.652 228.398 698.341 228.398C695.765 228.398 693.502 227.792 691.551 226.58C689.61 225.367 688.095 223.644 687.006 221.409C685.926 219.174 685.386 216.523 685.386 213.455C685.386 211.153 685.694 209.084 686.31 207.247C686.935 205.401 687.815 203.829 688.952 202.531C690.088 201.234 691.433 200.24 692.986 199.548C694.539 198.857 696.248 198.511 698.114 198.511C699.648 198.511 701.078 198.743 702.403 199.207C703.739 199.662 704.927 200.311 705.969 201.153C707.02 201.987 707.896 202.986 708.597 204.151C709.297 205.306 709.78 206.589 710.045 208H706.409ZM719.772 198.909V228H716.249V198.909H719.772ZM725.244 202.034V198.909H747.062V202.034H737.915V228H734.392V202.034H725.244Z" fill="white"/>
<path d="M567.523 83.9091H571.727L581.614 108.057H581.955L591.841 83.9091H596.045V113H592.75V90.8977H592.466L583.375 113H580.193L571.102 90.8977H570.818V113H567.523V83.9091ZM611.518 113.455C609.548 113.455 607.82 112.986 606.333 112.048C604.856 111.111 603.701 109.799 602.867 108.114C602.043 106.428 601.631 104.458 601.631 102.205C601.631 99.9318 602.043 97.9479 602.867 96.2528C603.701 94.5578 604.856 93.2415 606.333 92.304C607.82 91.3665 609.548 90.8977 611.518 90.8977C613.487 90.8977 615.211 91.3665 616.688 92.304C618.175 93.2415 619.33 94.5578 620.154 96.2528C620.987 97.9479 621.404 99.9318 621.404 102.205C621.404 104.458 620.987 106.428 620.154 108.114C619.33 109.799 618.175 111.111 616.688 112.048C615.211 112.986 613.487 113.455 611.518 113.455ZM611.518 110.443C613.014 110.443 614.245 110.06 615.211 109.293C616.177 108.526 616.892 107.517 617.356 106.267C617.82 105.017 618.052 103.663 618.052 102.205C618.052 100.746 617.82 99.3873 617.356 98.1278C616.892 96.8684 616.177 95.8504 615.211 95.0739C614.245 94.2973 613.014 93.9091 611.518 93.9091C610.022 93.9091 608.79 94.2973 607.825 95.0739C606.859 95.8504 606.144 96.8684 605.68 98.1278C605.216 99.3873 604.984 100.746 604.984 102.205C604.984 103.663 605.216 105.017 605.68 106.267C606.144 107.517 606.859 108.526 607.825 109.293C608.79 110.06 610.022 110.443 611.518 110.443ZM629.874 99.875V113H626.521V91.1818H629.76V94.5909H630.044C630.555 93.483 631.332 92.5928 632.374 91.9205C633.415 91.2386 634.76 90.8977 636.408 90.8977C637.885 90.8977 639.178 91.2008 640.286 91.8068C641.393 92.4034 642.255 93.3125 642.871 94.5341C643.486 95.7462 643.794 97.2803 643.794 99.1364V113H640.442V99.3636C640.442 97.6496 639.997 96.3144 639.107 95.358C638.216 94.392 636.995 93.9091 635.442 93.9091C634.372 93.9091 633.415 94.1411 632.572 94.6051C631.739 95.0691 631.081 95.7462 630.598 96.6364C630.115 97.5265 629.874 98.6061 629.874 99.875ZM658.783 113.455C656.814 113.455 655.085 112.986 653.599 112.048C652.121 111.111 650.966 109.799 650.133 108.114C649.309 106.428 648.897 104.458 648.897 102.205C648.897 99.9318 649.309 97.9479 650.133 96.2528C650.966 94.5578 652.121 93.2415 653.599 92.304C655.085 91.3665 656.814 90.8977 658.783 90.8977C660.753 90.8977 662.477 91.3665 663.954 92.304C665.441 93.2415 666.596 94.5578 667.42 96.2528C668.253 97.9479 668.67 99.9318 668.67 102.205C668.67 104.458 668.253 106.428 667.42 108.114C666.596 109.799 665.441 111.111 663.954 112.048C662.477 112.986 660.753 113.455 658.783 113.455ZM658.783 110.443C660.28 110.443 661.511 110.06 662.477 109.293C663.442 108.526 664.157 107.517 664.621 106.267C665.085 105.017 665.317 103.663 665.317 102.205C665.317 100.746 665.085 99.3873 664.621 98.1278C664.157 96.8684 663.442 95.8504 662.477 95.0739C661.511 94.2973 660.28 93.9091 658.783 93.9091C657.287 93.9091 656.056 94.2973 655.09 95.0739C654.124 95.8504 653.409 96.8684 652.945 98.1278C652.481 99.3873 652.249 100.746 652.249 102.205C652.249 103.663 652.481 105.017 652.945 106.267C653.409 107.517 654.124 108.526 655.09 109.293C656.056 110.06 657.287 110.443 658.783 110.443ZM673.787 113V91.1818H677.026V94.4773H677.253C677.651 93.3977 678.37 92.5218 679.412 91.8494C680.454 91.1771 681.628 90.8409 682.935 90.8409C683.181 90.8409 683.489 90.8456 683.858 90.8551C684.227 90.8646 684.507 90.8788 684.696 90.8977V94.3068C684.582 94.2784 684.322 94.2358 683.915 94.179C683.517 94.1127 683.096 94.0795 682.651 94.0795C681.59 94.0795 680.643 94.3021 679.81 94.7472C678.986 95.1828 678.332 95.7888 677.849 96.5653C677.376 97.3324 677.139 98.2083 677.139 99.1932V113H673.787ZM697.153 113.455C695.051 113.455 693.238 112.991 691.713 112.062C690.198 111.125 689.028 109.818 688.205 108.142C687.39 106.456 686.983 104.496 686.983 102.261C686.983 100.027 687.39 98.0568 688.205 96.3523C689.028 94.6383 690.174 93.303 691.642 92.3466C693.119 91.3807 694.843 90.8977 696.812 90.8977C697.949 90.8977 699.071 91.0871 700.179 91.4659C701.287 91.8447 702.295 92.4602 703.205 93.3125C704.114 94.1553 704.838 95.2727 705.378 96.6648C705.918 98.0568 706.188 99.7708 706.188 101.807V103.227H689.369V100.33H702.778C702.778 99.0985 702.532 98 702.04 97.0341C701.557 96.0682 700.866 95.3059 699.966 94.7472C699.076 94.1884 698.025 93.9091 696.812 93.9091C695.477 93.9091 694.322 94.2405 693.347 94.9034C692.381 95.5568 691.637 96.4091 691.116 97.4602C690.596 98.5114 690.335 99.6383 690.335 100.841V102.773C690.335 104.42 690.619 105.817 691.188 106.963C691.765 108.099 692.565 108.966 693.588 109.562C694.611 110.15 695.799 110.443 697.153 110.443C698.034 110.443 698.83 110.32 699.54 110.074C700.259 109.818 700.88 109.439 701.401 108.938C701.921 108.426 702.324 107.792 702.608 107.034L705.847 107.943C705.506 109.042 704.933 110.008 704.128 110.841C703.323 111.665 702.329 112.309 701.145 112.773C699.961 113.227 698.631 113.455 697.153 113.455ZM711.287 121.182V91.1818H714.526V94.6477H714.923C715.17 94.2689 715.51 93.786 715.946 93.1989C716.391 92.6023 717.026 92.072 717.849 91.608C718.683 91.1345 719.81 90.8977 721.23 90.8977C723.067 90.8977 724.687 91.357 726.088 92.2756C727.49 93.1941 728.583 94.4962 729.369 96.1818C730.155 97.8674 730.548 99.8561 730.548 102.148C730.548 104.458 730.155 106.461 729.369 108.156C728.583 109.842 727.494 111.149 726.102 112.077C724.71 112.995 723.105 113.455 721.287 113.455C719.885 113.455 718.763 113.223 717.92 112.759C717.078 112.285 716.429 111.75 715.974 111.153C715.52 110.547 715.17 110.045 714.923 109.648H714.639V121.182H711.287ZM714.582 102.091C714.582 103.739 714.824 105.192 715.307 106.452C715.79 107.702 716.495 108.682 717.423 109.392C718.351 110.093 719.488 110.443 720.832 110.443C722.234 110.443 723.403 110.074 724.341 109.335C725.288 108.587 725.998 107.583 726.472 106.324C726.955 105.055 727.196 103.644 727.196 102.091C727.196 100.557 726.959 99.1742 726.486 97.9432C726.022 96.7027 725.316 95.7225 724.369 95.0028C723.432 94.2737 722.253 93.9091 720.832 93.9091C719.469 93.9091 718.323 94.2547 717.395 94.946C716.467 95.6278 715.766 96.5843 715.293 97.8153C714.819 99.0369 714.582 100.462 714.582 102.091ZM744.526 113.455C742.556 113.455 740.828 112.986 739.341 112.048C737.864 111.111 736.708 109.799 735.875 108.114C735.051 106.428 734.639 104.458 734.639 102.205C734.639 99.9318 735.051 97.9479 735.875 96.2528C736.708 94.5578 737.864 93.2415 739.341 92.304C740.828 91.3665 742.556 90.8977 744.526 90.8977C746.495 90.8977 748.219 91.3665 749.696 92.304C751.183 93.2415 752.338 94.5578 753.162 96.2528C753.995 97.9479 754.412 99.9318 754.412 102.205C754.412 104.458 753.995 106.428 753.162 108.114C752.338 109.799 751.183 111.111 749.696 112.048C748.219 112.986 746.495 113.455 744.526 113.455ZM744.526 110.443C746.022 110.443 747.253 110.06 748.219 109.293C749.185 108.526 749.9 107.517 750.364 106.267C750.828 105.017 751.06 103.663 751.06 102.205C751.06 100.746 750.828 99.3873 750.364 98.1278C749.9 96.8684 749.185 95.8504 748.219 95.0739C747.253 94.2973 746.022 93.9091 744.526 93.9091C743.029 93.9091 741.798 94.2973 740.832 95.0739C739.866 95.8504 739.152 96.8684 738.688 98.1278C738.223 99.3873 737.991 100.746 737.991 102.205C737.991 103.663 738.223 105.017 738.688 106.267C739.152 107.517 739.866 108.526 740.832 109.293C741.798 110.06 743.029 110.443 744.526 110.443Z" fill="white"/>
<path d="M649.932 47.8182V74H646.864L632.597 53.4432H632.341V74H629.17V47.8182H632.239L646.557 68.4261H646.812V47.8182H649.932ZM663.844 74.4091C662.071 74.4091 660.516 73.9872 659.178 73.1435C657.848 72.2997 656.809 71.1193 656.059 69.6023C655.317 68.0852 654.946 66.3125 654.946 64.2841C654.946 62.2386 655.317 60.4531 656.059 58.9276C656.809 57.402 657.848 56.2173 659.178 55.3736C660.516 54.5298 662.071 54.108 663.844 54.108C665.617 54.108 667.168 54.5298 668.498 55.3736C669.836 56.2173 670.875 57.402 671.617 58.9276C672.367 60.4531 672.742 62.2386 672.742 64.2841C672.742 66.3125 672.367 68.0852 671.617 69.6023C670.875 71.1193 669.836 72.2997 668.498 73.1435C667.168 73.9872 665.617 74.4091 663.844 74.4091ZM663.844 71.6989C665.191 71.6989 666.299 71.3537 667.168 70.6634C668.037 69.973 668.681 69.0653 669.098 67.9403C669.516 66.8153 669.725 65.5966 669.725 64.2841C669.725 62.9716 669.516 61.7486 669.098 60.6151C668.681 59.4815 668.037 58.5653 667.168 57.8665C666.299 57.1676 665.191 56.8182 663.844 56.8182C662.498 56.8182 661.39 57.1676 660.52 57.8665C659.651 58.5653 659.007 59.4815 658.59 60.6151C658.172 61.7486 657.963 62.9716 657.963 64.2841C657.963 65.5966 658.172 66.8153 658.59 67.9403C659.007 69.0653 659.651 69.973 660.52 70.6634C661.39 71.3537 662.498 71.6989 663.844 71.6989ZM684.762 74.4091C683.126 74.4091 681.681 73.9957 680.428 73.169C679.175 72.3338 678.195 71.1577 677.488 69.6406C676.781 68.1151 676.427 66.3125 676.427 64.233C676.427 62.1705 676.781 60.3807 677.488 58.8636C678.195 57.3466 679.18 56.1747 680.441 55.348C681.702 54.5213 683.16 54.108 684.813 54.108C686.092 54.108 687.102 54.321 687.843 54.7472C688.593 55.1648 689.164 55.642 689.556 56.179C689.957 56.7074 690.268 57.142 690.489 57.483H690.745V47.8182H693.762V74H690.847V70.983H690.489C690.268 71.3409 689.952 71.7926 689.543 72.3381C689.134 72.875 688.55 73.3565 687.792 73.7827C687.033 74.2003 686.023 74.4091 684.762 74.4091ZM685.171 71.6989C686.381 71.6989 687.404 71.3835 688.239 70.7528C689.075 70.1136 689.71 69.2315 690.144 68.1065C690.579 66.973 690.796 65.6648 690.796 64.1818C690.796 62.7159 690.583 61.4332 690.157 60.3338C689.731 59.2259 689.1 58.3651 688.265 57.7514C687.43 57.1293 686.398 56.8182 685.171 56.8182C683.893 56.8182 682.827 57.1463 681.975 57.8026C681.131 58.4503 680.496 59.3324 680.07 60.4489C679.653 61.5568 679.444 62.8011 679.444 64.1818C679.444 65.5795 679.657 66.8494 680.083 67.9915C680.518 69.125 681.157 70.0284 682.001 70.7017C682.853 71.3665 683.91 71.6989 685.171 71.6989ZM707.94 74.4091C706.048 74.4091 704.415 73.9915 703.043 73.1562C701.68 72.3125 700.627 71.1364 699.886 69.6278C699.153 68.1108 698.786 66.3466 698.786 64.3352C698.786 62.3239 699.153 60.5511 699.886 59.017C700.627 57.4744 701.658 56.2727 702.979 55.4119C704.309 54.5426 705.86 54.108 707.633 54.108C708.656 54.108 709.665 54.2784 710.663 54.6193C711.66 54.9602 712.567 55.5142 713.386 56.2812C714.204 57.0398 714.856 58.0455 715.342 59.2983C715.827 60.5511 716.07 62.0937 716.07 63.9261V65.2045H700.934V62.5966H713.002C713.002 61.4886 712.781 60.5 712.337 59.6307C711.903 58.7614 711.281 58.0753 710.471 57.5724C709.67 57.0696 708.724 56.8182 707.633 56.8182C706.431 56.8182 705.391 57.1165 704.513 57.7131C703.644 58.3011 702.975 59.0682 702.506 60.0142C702.038 60.9602 701.803 61.9744 701.803 63.0568V64.7955C701.803 66.2784 702.059 67.5355 702.57 68.5668C703.09 69.5895 703.81 70.3693 704.731 70.9062C705.651 71.4347 706.721 71.6989 707.94 71.6989C708.732 71.6989 709.448 71.5881 710.087 71.3665C710.735 71.1364 711.293 70.7955 711.762 70.3438C712.231 69.8835 712.593 69.3125 712.849 68.6307L715.763 69.4489C715.457 70.4375 714.941 71.3068 714.217 72.0568C713.492 72.7983 712.597 73.3778 711.532 73.7955C710.467 74.2045 709.269 74.4091 707.94 74.4091ZM731.092 47.8182H734.262V66.5341C734.262 68.2045 733.955 69.6236 733.342 70.7912C732.728 71.9588 731.863 72.8452 730.746 73.4503C729.63 74.0554 728.313 74.358 726.796 74.358C725.364 74.358 724.09 74.098 722.974 73.5781C721.857 73.0497 720.979 72.2997 720.34 71.3281C719.701 70.3565 719.381 69.2017 719.381 67.8636H722.501C722.501 68.6051 722.684 69.2528 723.05 69.8068C723.425 70.3523 723.937 70.7784 724.585 71.0852C725.232 71.392 725.969 71.5455 726.796 71.5455C727.708 71.5455 728.484 71.3537 729.123 70.9702C729.762 70.5866 730.248 70.0241 730.58 69.2827C730.921 68.5327 731.092 67.6165 731.092 66.5341V47.8182ZM754.934 54.3636C754.781 53.0682 754.158 52.0625 753.067 51.3466C751.977 50.6307 750.638 50.2727 749.053 50.2727C747.894 50.2727 746.88 50.4602 746.011 50.8352C745.15 51.2102 744.477 51.7259 743.991 52.3821C743.513 53.0384 743.275 53.7841 743.275 54.6193C743.275 55.3182 743.441 55.919 743.773 56.4219C744.114 56.9162 744.549 57.3295 745.077 57.6619C745.606 57.9858 746.16 58.2543 746.739 58.4673C747.319 58.6719 747.852 58.8381 748.337 58.9659L750.996 59.6818C751.678 59.8608 752.437 60.108 753.272 60.4233C754.116 60.7386 754.921 61.169 755.688 61.7145C756.464 62.2514 757.103 62.9418 757.606 63.7855C758.109 64.6293 758.36 65.6648 758.36 66.892C758.36 68.3068 757.989 69.5852 757.248 70.7273C756.515 71.8693 755.441 72.777 754.026 73.4503C752.62 74.1236 750.911 74.4602 748.9 74.4602C747.025 74.4602 745.401 74.1577 744.029 73.5526C742.665 72.9474 741.592 72.1037 740.808 71.0213C740.032 69.9389 739.593 68.6818 739.491 67.25H742.763C742.849 68.2386 743.181 69.0568 743.761 69.7045C744.349 70.3437 745.09 70.821 745.985 71.1364C746.888 71.4432 747.86 71.5966 748.9 71.5966C750.11 71.5966 751.197 71.4006 752.16 71.0085C753.123 70.608 753.886 70.054 754.448 69.3466C755.011 68.6307 755.292 67.7955 755.292 66.8409C755.292 65.9716 755.049 65.2642 754.563 64.7188C754.077 64.1733 753.438 63.7301 752.646 63.3892C751.853 63.0483 750.996 62.75 750.076 62.4943L746.854 61.5739C744.809 60.9858 743.19 60.1463 741.996 59.0554C740.803 57.9645 740.207 56.5369 740.207 54.7727C740.207 53.3068 740.603 52.0284 741.396 50.9375C742.197 49.8381 743.271 48.9858 744.617 48.3807C745.972 47.767 747.485 47.4602 749.156 47.4602C750.843 47.4602 752.343 47.7628 753.656 48.3679C754.968 48.9645 756.008 49.7827 756.775 50.8224C757.55 51.8622 757.96 53.0426 758.002 54.3636H754.934Z" fill="white"/>
</svg>
